<svg width="24" height="24" viewBox="0 0 24 24" fill="none" xmlns="http://www.w3.org/2000/svg">
<path d="M11 9.99999C10.7238 9.99999 10.5 10.2238 10.5 10.5C10.5 10.7761 10.7238 11 11 11V10.5V9.99999ZM13 16C13.2761 16 13.5 15.7761 13.5 15.5C13.5 15.2238 13.2761 15 13 15V15.5V16ZM12 7.99999C11.7238 7.99999 11.5 8.22385 11.5 8.49999C11.5 8.77613 11.7238 8.99999 12 8.99999V8.49999V7.99999ZM12.01 8.99999C12.2861 8.99999 12.51 8.77613 12.51 8.49999C12.51 8.22385 12.2861 7.99999 12.01 7.99999V8.49999V8.99999ZM11 10.5V11H11.5V10.5V9.99999H11V10.5ZM11.5 10.5V11H12H12.5C12.5 10.4477 12.0522 9.99999 11.5 9.99999V10.5ZM12 11H11.5V15H12H12.5V11H12ZM12 15H11.5C11.5 15.5522 11.9477 16 12.5 16V15.5V15H12ZM12.5 15.5V16H13V15.5V15H12.5V15.5ZM12 8.49999V8.99999H12.01V8.49999V7.99999H12V8.49999ZM13.3892 19.8785L13.476 20.3709C14.5753 20.177 15.6256 19.7686 16.567 19.1688L16.2984 18.7471L16.0297 18.3254C15.1991 18.8546 14.2723 19.215 13.3023 19.3861L13.3892 19.8785ZM16.2984 18.7471L16.567 19.1688C17.5084 18.5691 18.3225 17.7897 18.9628 16.8754L18.5532 16.5886L18.1436 16.3018C17.5787 17.1086 16.8603 17.7963 16.0297 18.3254L16.2984 18.7471ZM18.5532 16.5886L18.9628 16.8754C19.603 15.961 20.0569 14.9295 20.2985 13.8397L19.8104 13.7315L19.3222 13.6233C19.109 14.5848 18.7085 15.495 18.1436 16.3018L18.5532 16.5886ZM19.8104 13.7315L20.2985 13.8397C20.5401 12.7499 20.5647 11.6232 20.3709 10.524L19.8785 10.6108L19.3861 10.6976C19.5571 11.6676 19.5354 12.6617 19.3222 13.6233L19.8104 13.7315ZM19.8785 10.6108L20.3709 10.524C20.177 9.4248 19.7686 8.37437 19.1688 7.43293L18.7471 7.70159L18.3254 7.97022C18.8546 8.80088 19.215 9.72768 19.3861 10.6976L19.8785 10.6108ZM18.7471 7.70159L19.1688 7.43293C18.5691 6.49148 17.7897 5.67744 16.8754 5.0372L16.5886 5.44678L16.3018 5.85635C17.1086 6.42129 17.7963 7.13958 18.3254 7.97022L18.7471 7.70159ZM16.5886 5.44678L16.8754 5.0372C15.961 4.39696 14.9295 3.94308 13.8397 3.70148L13.7315 4.18963L13.6233 4.67778C14.5849 4.89095 15.495 5.29142 16.3018 5.85635L16.5886 5.44678ZM13.7315 4.18963L13.8397 3.70148C12.7499 3.45989 11.6232 3.4353 10.524 3.62913L10.6108 4.12154L10.6976 4.61394C11.6675 4.44291 12.6617 4.46461 13.6233 4.67778L13.7315 4.18963ZM10.6108 4.12154L10.524 3.62913C9.4247 3.82297 8.37437 4.23142 7.43294 4.83117L7.70159 5.25287L7.97024 5.67456C8.80091 5.14537 9.72768 4.78497 10.6976 4.61394L10.6108 4.12154ZM7.70159 5.25287L7.43294 4.83117C6.49152 5.43092 5.67745 6.21023 5.0372 7.12459L5.44678 7.41138L5.85635 7.69817C6.42128 6.89138 7.13958 6.20375 7.97024 5.67456L7.70159 5.25287ZM5.44678 7.41138L5.0372 7.12459C4.39696 8.03895 3.94308 9.07048 3.70148 10.1603L4.18963 10.2685L4.67778 10.3767C4.89095 9.41512 5.29143 8.50496 5.85635 7.69817L5.44678 7.41138ZM4.18963 10.2685L3.70148 10.1603C3.45989 11.2501 3.4353 12.3767 3.62913 13.476L4.12154 13.3892L4.61394 13.3024C4.44291 12.3324 4.46461 11.3383 4.67778 10.3767L4.18963 10.2685ZM4.12154 13.3892L3.62913 13.476C3.82296 14.5753 4.23142 15.6257 4.83118 16.567L5.25287 16.2984L5.67456 16.0297C5.14537 15.1991 4.78497 14.2723 4.61394 13.3024L4.12154 13.3892ZM5.25287 16.2984L4.83118 16.567C5.43092 17.5084 6.21023 18.3225 7.12459 18.9627L7.41138 18.5532L7.69818 18.1436C6.89138 17.5787 6.20375 16.8603 5.67456 16.0297L5.25287 16.2984ZM7.41138 18.5532L7.12459 18.9627C8.03895 19.603 9.07047 20.0569 10.1603 20.2985L10.2685 19.8104L10.3767 19.3222C9.41513 19.109 8.50497 18.7085 7.69818 18.1436L7.41138 18.5532ZM10.2685 19.8104L10.1603 20.2985C11.2501 20.5401 12.3768 20.5647 13.476 20.3709L13.3892 19.8785L13.3023 19.3861C12.3323 19.5571 11.3383 19.5354 10.3767 19.3222L10.2685 19.8104Z" fill="currentColor"/>
</svg>
