<svg width="24" height="24" viewBox="0 0 24 24" fill="none" xmlns="http://www.w3.org/2000/svg">
<path d="M22.7736 17.616C22.4135 16.2721 21.0299 15.472 19.686 15.8334C15.2268 17.0319 16.6464 16.6704 12.0987 17.8665C10.7526 18.2205 9.9562 19.6102 10.3162 20.9541C10.6761 22.298 12.0597 23.0966 13.4036 22.7367C17.9461 21.5195 16.5249 21.8757 20.9909 20.7036C22.337 20.3503 23.1334 18.9599 22.7736 17.616ZM21.0111 20.2371L17.9843 21.0456C16.4777 21.4491 15.4323 17.3828 16.8977 16.9899L19.9245 16.1814C22.3498 15.532 23.399 19.5974 21.0111 20.2371ZM10.1872 7.74446C9.37049 6.92702 8.04383 6.92702 7.22639 7.74446C4.46508 10.5058 5.33877 9.65908 2.61421 12.3567C1.79302 13.1696 1.79752 14.5 2.61421 15.3175C3.4309 16.1349 4.75831 16.1349 5.575 15.3175C8.28456 12.6042 7.41387 13.4538 10.1872 10.7053C11.0076 9.89156 11.0039 8.56191 10.1872 7.74446ZM5.16028 15.2162C3.68138 16.6951 1.23206 14.1993 2.6877 12.7437L4.8513 10.58C4.1396 11.2819 6.47719 13.8993 7.32388 13.0526L5.16028 15.2162ZM19.6455 11.0974C18.4741 6.81228 18.8603 8.16818 17.6896 3.79824C17.3431 2.50532 16.0127 1.73662 14.7191 2.0831C13.4254 2.42958 12.6515 3.76224 13.0039 5.05365C14.1949 9.41835 13.8131 8.06169 14.9598 12.3529C15.3056 13.6466 16.6367 14.4145 17.9304 14.0681C19.224 13.7216 19.9987 12.3889 19.6455 11.0974ZM15.3761 12.3087L14.4678 8.91888C14.8233 10.2448 18.6465 8.98637 18.3421 7.88094L19.2502 11.2707C19.8615 13.5513 15.997 14.6252 15.3761 12.3087Z" fill="currentColor"/>
</svg>
