<svg width="24" height="24" viewBox="0 0 24 24" fill="none" xmlns="http://www.w3.org/2000/svg">
<path d="M2.79295 13.6845C2.26432 12.7341 2 12.2588 2 11.74C2 11.2212 2.26432 10.7459 2.79296 9.7955L4.14201 7.37L5.56772 4.98876C6.12639 4.05567 6.40573 3.58912 6.855 3.3297C7.30426 3.07028 7.84791 3.0616 8.93522 3.04426L11.71 3L14.4848 3.04426C15.572 3.0616 16.1158 3.07028 16.565 3.3297C17.0142 3.58912 17.2936 4.05567 17.8522 4.98876L19.278 7.37L20.627 9.7955C21.1556 10.7459 21.42 11.2212 21.42 11.74C21.42 12.2588 21.1556 12.7341 20.627 13.6845L19.278 16.11L17.8522 18.4912C17.2936 19.4243 17.0142 19.8909 16.565 20.1503C16.1158 20.4097 15.572 20.4184 14.4848 20.4357L11.71 20.48L8.93522 20.4357C7.84791 20.4184 7.30426 20.4097 6.855 20.1503C6.40573 19.8909 6.12639 19.4243 5.56772 18.4912L4.14201 16.11L2.79295 13.6845Z" stroke="currentColor"/>
<path d="M11.71 14.74C13.3666 14.74 14.7096 13.3969 14.7096 11.74C14.7096 10.0831 13.3666 8.74 11.71 8.74C10.0534 8.74 8.71042 10.0831 8.71042 11.74C8.71042 13.3969 10.0534 14.74 11.71 14.74Z" stroke="currentColor"/>
</svg>
