<svg width="24" height="24" viewBox="0 0 24 24" fill="none" xmlns="http://www.w3.org/2000/svg">
<path d="M9 9.77516H14M9 12.275H14M9 14.7749H14M17 19.2798V5.27024C17 4.63132 16.2879 4.25023 15.7562 4.60463L14.4867 5.45092C14.1969 5.64416 13.8153 5.6276 13.5432 5.40999L11.9998 4.17529C11.7076 3.94156 11.2924 3.94157 11.0002 4.1753L9.45679 5.40999C9.18475 5.6276 8.80314 5.64416 8.51327 5.45092L7.24376 4.60463C6.71212 4.25023 6 4.63132 6 5.27024V19.2798C6 19.9187 6.71212 20.2998 7.24376 19.9454L8.51327 19.0991C8.80314 18.9058 9.18475 18.9224 9.45679 19.14L11.0002 20.3747C11.2924 20.6084 11.7076 20.6084 11.9998 20.3747L13.5432 19.14C13.8153 18.9224 14.1969 18.9058 14.4867 19.0991L15.7562 19.9454C16.2879 20.2998 17 19.9187 17 19.2798Z" stroke="currentColor" stroke-linecap="round"/>
</svg>
