<svg width="24" height="24" viewBox="0 0 24 24" fill="none" xmlns="http://www.w3.org/2000/svg">
  <path
    d="M4.92894 4.92892C3.293 6.56487 2.27494 8.71742 2.04817 11.0198C1.8214 13.3222 2.39997 15.632 3.68532 17.5558C4.97065 19.4795 6.88322 20.8978 9.09714 21.5694C11.311 22.241 13.6893 22.1241 15.8267 21.2388C17.9643 20.3535 19.7287 18.7543 20.8193 16.714C21.9098 14.6736 22.2591 12.3182 21.8079 10.049C21.3564 7.78001 20.1323 5.73761 18.3439 4.26989C16.5556 2.80219 14.3136 2 12 2V4.63158M12 12L6.73685 6.73685M21.4737 12H19.3683M12 19.3683V21.4738M4.63159 12H2.52633"
    stroke="currentColor"
    stroke-linecap="round"
    stroke-linejoin="round"
  />
</svg>